<svg id="Layer_1" data-name="Layer 1" xmlns="http://www.w3.org/2000/svg" viewBox="0 0 399.31 500"><title>GAZT VAT icon</title><path d="M399.31,357.79V44.8A44.85,44.85,0,0,0,354.51,0H44.81A44.86,44.86,0,0,0,0,44.8V394.62H0v60.57A44.86,44.86,0,0,0,44.8,500H354.51a44.86,44.86,0,0,0,44.8-44.81v-97.4" fill="#fff"/><path d="M43.63,330.46H355.68a25.79,25.79,0,0,1,16.49,5.94V45.77a17.65,17.65,0,0,0-17.7-17.61H44.84A17.65,17.65,0,0,0,27.15,45.77V336.4a25.74,25.74,0,0,1,16.48-5.94" fill="#005e4b"/><path d="M323.74,65.09a5.41,5.41,0,0,0-10.8,0,5.41,5.41,0,0,0,10.8,0m-23.11,42.76H337V95.73c0-3.27-.64-5.51-2.06-7.25-1.57-1.91-4.1-2.89-7.52-2.89h-26.8Zm-70,24.89a19.59,19.59,0,0,1-5.25-.72l-1-.27,2.15-7.85,1,.26a9.43,9.43,0,0,0,2.86.42c3.58,0,4.77-1.2,4.77-8.31V72.64h8.2v35.21h49.12V72.64h8.2v4.79h26.8c6.26,0,10.38,1.65,13.77,5.53,2.58,2.9,4,7.44,4,12.77V116H242.41l0,.44c.3,6.19-.84,10.68-3.4,13.35-2.82,2.94-6.62,2.94-8.45,2.94Zm-13.43-5.83a5.29,5.29,0,0,0-10.57,0,5.29,5.29,0,0,0,10.57,0m-14.82,0a5.25,5.25,0,0,0-10.49,0,5.25,5.25,0,0,0,10.49,0m-46.12-.15a5.41,5.41,0,1,0-5.4,5.15,5.19,5.19,0,0,0,5.4-5.15M77.45,58.17a5.25,5.25,0,1,0-5.25,5.06,5.07,5.07,0,0,0,5.25-5.06m14.82,0a5.29,5.29,0,0,0-10.57,0,5.29,5.29,0,0,0,10.57,0M78,80.8c-7.47,0-15.54,5.19-15.54,13.56,0,9.32,7.81,13.49,15.54,13.49h5v-27ZM79.11,116c-18.33,0-24.84-11.66-24.84-21.65,0-12.79,10.8-21.72,26.26-21.72H83v-3.8h8.2v39h55.51V72.64h8.2v35.21h51.75V72.64h8V116Z" fill="#fff"/><path d="M345.21,143.51H337v63.76h8.2ZM82.83,172.06v27.05h-5c-7.73,0-15.53-4.18-15.53-13.49,0-8.38,8.06-13.56,15.53-13.56Zm191.38,0v27.05h-12l-.1-.06c-5.37-3.14-8.45-8.06-8.45-13.51,0-8.76,7.69-13.48,14.92-13.48Zm-113.3,19c0,8.47-6.51,14.85-15.15,14.85a14.93,14.93,0,0,1,0-29.86c8.78,0,15.15,6.31,15.15,15m1.6,16.29.12-.12h159V143.51h-8.2v55.6h-31V163.9H271.06c-15.58,0-25.64,8.49-25.64,21.64a19.14,19.14,0,0,0,4.67,12.88l.6.69h-39V163.9h-8.2v35.21H167.72l.19-.55a22.94,22.94,0,0,0,1.2-7.39c0-13.25-10-23.24-23.35-23.24-12.8,0-22.82,10.21-22.82,23.24a24,24,0,0,0,1.18,7.39l.18.55H91v-39h-8.2v3.81H80.36c-15.46,0-26.25,8.93-26.25,21.72,0,10.47,6.9,21.65,26.25,21.65h49l.12.12a22.65,22.65,0,0,0,16.3,6.8,23.66,23.66,0,0,0,16.75-6.8m117.77-55a5.29,5.29,0,0,0-10.57,0,5.29,5.29,0,0,0,10.57,0m-14.82,0a5.25,5.25,0,1,0-5.25,5.07,5.08,5.08,0,0,0,5.25-5.07M219.7,218.17a5.29,5.29,0,0,0-10.57,0,5.29,5.29,0,0,0,10.57,0m-14.82,0a5.25,5.25,0,0,0-10.49,0,5.25,5.25,0,0,0,10.49,0M77.28,149.42A5.25,5.25,0,1,0,72,154.49a5.08,5.08,0,0,0,5.25-5.07m9.5,5.07a5,5,0,1,1,0-10.07,5,5,0,1,1,0,10.07" fill="#fff"/><path d="M345.2,234.77H337v63.76h8.2ZM189.92,268.1h25.92c3.42,0,5.95,1,7.52,2.89,1.42,1.74,2.06,4,2.06,7.25v12.12h-35.5Zm96.68,14.25c0,8.47-6.52,14.85-15.15,14.85a14.93,14.93,0,0,1,0-29.85c8.78,0,15.15,6.31,15.15,15m1.6,16.3.12-.12H321.6V234.77h-8.2v55.59h-20l.19-.55a22.83,22.83,0,0,0,1.2-7.38c0-13.26-10-23.25-23.35-23.25-12.8,0-22.82,10.21-22.82,23.25a24,24,0,0,0,1.18,7.39l.17.54H233.62V278.24c0-5.34-1.42-9.87-4-12.77-3.39-3.88-7.51-5.53-13.77-5.53H189.92v-4.79h-8.2v35.21H162V234.77h-8.2v63.76H255l.12.12a22.7,22.7,0,0,0,16.3,6.79,23.63,23.63,0,0,0,16.75-6.79m-76-51.06a5.41,5.41,0,0,0-10.8,0,5.41,5.41,0,0,0,10.8,0m-80.34-4a5.41,5.41,0,0,0-10.8,0,5.41,5.41,0,0,0,10.8,0M83,263.31v27.05H78c-7.73,0-15.53-4.17-15.53-13.48,0-8.38,8.06-13.57,15.53-13.57Zm50.16,0v27.05h-12l-.1-.06c-5.37-3.14-8.45-8.06-8.45-13.5,0-6.54,5.23-13.49,14.92-13.49Zm8.2,35.22V255.15H130c-15.58,0-25.64,8.5-25.64,21.65A19.13,19.13,0,0,0,109,289.67l.6.69H91.2v-39H83v3.8H80.53c-15.46,0-26.25,8.93-26.25,21.73,0,10.46,6.89,21.65,26.25,21.65ZM77.45,240.68a5.25,5.25,0,1,0-5.25,5.07,5.07,5.07,0,0,0,5.25-5.07m9.5,5.07a5,5,0,1,1,0-10.07,5,5,0,1,1,0,10.07" fill="#fff"/><path d="M354.51,471.84H44.8a17.65,17.65,0,0,1-17.65-17.65v-96.8A17.65,17.65,0,0,1,44.8,339.74H354.51a17.66,17.66,0,0,1,17.66,17.65v96.8a17.66,17.66,0,0,1-17.66,17.65" fill="#d19e2c"/><path d="M102.91,430.34l20.87-70.4h29.27c-9.71,29.18-30.54,91.7-30.78,91.7H83.55c-.24,0-21.07-62.52-30.78-91.7H82Z" fill="#fff"/><polygon points="346.5 359.95 249.5 359.95 256.82 380.98 287.82 380.98 287.82 451.63 315.63 451.63 315.63 380.98 346.55 380.98 346.5 359.95" fill="#fff"/><path d="M248.15,393.54l-3-6.46c-15.22,10-40.46,40-40.46,40l-9.26-10.44L192.11,428l-.43,1.66c3.53,5.05,13.19,22,13.19,22,22.28-40.56,43.28-58.1,43.28-58.1" fill="#005e4b"/><path d="M201.35,381.24l9.53,32.14c5.81-6.41,13.47-14.49,20.8-21.13-6.05-18.06-10.85-32.31-11-32.31H182c-.23,0-21.07,62.52-30.78,91.7h29.27Z" fill="#fff"/><path d="M218.14,437.84l4.09,13.8h29.26c-3.57-10.72-8.64-25.95-13.63-40.92a245.51,245.51,0,0,0-19.72,27.12" fill="#fff"/></svg>